<svg id="visual" viewBox="0 0 900 600" width="900" height="600" xmlns="http://www.w3.org/2000/svg" xmlns:xlink="http://www.w3.org/1999/xlink" version="1.1"><path d="M0 356L129 356L129 278L257 278L257 270L386 270L386 304L514 304L514 287L643 287L643 339L771 339L771 371L900 371L900 304L900 601L900 601L771 601L771 601L643 601L643 601L514 601L514 601L386 601L386 601L257 601L257 601L129 601L129 601L0 601Z" fill="#00c3ff"></path><path d="M0 414L129 414L129 433L257 433L257 362L386 362L386 388L514 388L514 480L643 480L643 386L771 386L771 372L900 372L900 369L900 601L900 601L771 601L771 601L643 601L643 601L514 601L514 601L386 601L386 601L257 601L257 601L129 601L129 601L0 601Z" fill="#009bff"></path><path d="M0 508L129 508L129 504L257 504L257 480L386 480L386 465L514 465L514 442L643 442L643 490L771 490L771 520L900 520L900 491L900 601L900 601L771 601L771 601L643 601L643 601L514 601L514 601L386 601L386 601L257 601L257 601L129 601L129 601L0 601Z" fill="#5b60ff"></path></svg>